<?xml version="1.0" standalone="no"?>
<!DOCTYPE svg PUBLIC "-//W3C//DTD SVG 20010904//EN"
 "http://www.w3.org/TR/2001/REC-SVG-20010904/DTD/svg10.dtd">
<svg version="1.0" xmlns="http://www.w3.org/2000/svg"
 width="1668.000000pt" height="1668.000000pt" viewBox="0 0 1668.000000 1668.000000"
 preserveAspectRatio="xMidYMid meet">
<metadata>
Created by potrace 1.11, written by Peter Selinger 2001-2013
</metadata>
<g transform="translate(0.000000,1668.000000) scale(0.100000,-0.100000)"
fill="#000000" stroke="none">
<path d="M3809 16663 c0 -5 -1 -3755 -2 -8335 l-2 -8327 25 4 c14 2 50 7 80
10 30 4 62 9 70 10 8 2 40 6 71 9 31 4 65 8 75 10 11 2 48 7 84 11 36 3 72 8
80 10 8 2 44 6 80 10 36 3 76 8 90 10 14 2 50 7 80 10 30 3 72 8 93 10 81 10
115 14 177 20 36 4 76 8 90 10 14 2 54 6 90 10 36 3 81 8 100 10 50 6 125 13
200 20 36 3 81 8 100 10 19 3 67 7 105 10 39 4 88 8 110 10 22 1 78 6 125 9
47 4 101 9 120 11 19 2 78 7 130 10 52 4 111 8 130 10 19 2 80 6 135 9 55 4
125 9 155 11 56 5 199 13 325 20 39 2 124 7 190 11 66 4 127 7 136 6 14 0 16
319 18 3581 1 1969 3 3582 5 3584 1 2 40 -101 85 -229 45 -128 100 -280 121
-338 21 -58 55 -152 75 -210 20 -58 42 -121 50 -140 8 -19 48 -132 90 -250 42
-118 89 -251 105 -295 16 -44 66 -183 111 -310 44 -126 89 -252 100 -280 10
-27 50 -140 89 -250 39 -110 82 -229 95 -265 43 -117 227 -633 252 -705 34
-100 83 -237 93 -260 4 -11 29 -81 55 -155 25 -74 64 -182 85 -240 21 -58 47
-132 59 -165 11 -33 39 -112 61 -175 66 -183 151 -422 162 -455 5 -16 13 -39
18 -50 4 -11 27 -74 50 -140 23 -66 44 -127 47 -135 45 -126 111 -311 388
-1095 103 -291 212 -600 242 -685 30 -85 69 -197 86 -247 l32 -93 50 -1 c28
-1 61 -3 75 -4 14 -1 90 -6 170 -9 80 -4 163 -9 185 -11 22 -2 87 -6 145 -10
58 -3 132 -8 165 -10 143 -10 223 -16 270 -20 28 -2 86 -7 130 -10 44 -3 98
-8 120 -10 22 -2 78 -7 125 -11 47 -3 92 -7 100 -9 8 -1 58 -6 110 -10 52 -4
102 -9 110 -10 8 -2 53 -6 99 -10 47 -4 92 -8 100 -10 9 -1 54 -6 101 -10 47
-3 92 -8 100 -10 8 -2 49 -7 90 -10 41 -4 82 -8 90 -10 8 -2 49 -6 90 -10 41
-4 77 -8 80 -10 3 -1 41 -6 85 -10 44 -4 82 -8 85 -10 3 -2 39 -6 80 -10 41
-3 82 -8 90 -10 8 -2 40 -7 70 -10 30 -3 62 -8 70 -10 8 -2 42 -6 75 -10 33
-3 89 -10 125 -15 35 -5 67 -7 70 -4 3 3 5 3754 5 8335 l0 8329 -1631 0 -1631
0 -1 -3542 c0 -1949 -1 -3561 -2 -3583 l-1 -40 -19 50 c-25 67 -173 484 -199
560 -11 33 -34 98 -51 145 -17 47 -49 135 -70 195 -21 61 -57 162 -80 225 -23
63 -44 124 -47 135 -2 11 -8 29 -13 40 -5 11 -22 58 -38 105 -17 47 -42 119
-57 160 -14 41 -64 183 -111 315 -46 132 -88 249 -93 260 -5 11 -66 182 -136
380 -69 198 -137 389 -150 425 -13 36 -37 103 -54 150 -112 316 -470 1323
-551 1550 -54 151 -148 417 -210 590 -61 173 -134 378 -162 455 -28 77 -65
183 -83 235 -19 52 -52 147 -75 210 -22 63 -48 135 -57 160 -8 25 -64 182
-124 349 -60 168 -109 308 -109 311 0 4 -8 25 -17 46 -9 22 -18 44 -19 49 -1
6 -7 22 -13 38 l-11 27 -1630 0 c-896 0 -1630 -3 -1631 -7z"/>
</g>
</svg>
